v 37.4516 0.0 8.3527
v 37.4516 0.0 4.5522
v 51.2045 0.0 4.5522
v 51.2045 0.0 8.3527
v 37.4516 3.273 8.3527
v 51.2045 3.273 8.3527
v 51.2045 3.273 4.5522
v 37.4516 3.273 4.5522
vn 0.0 -1.0 -0.0
vn 0.0 -1.0 -0.0
vn 0.0 -1.0 -0.0
vn 0.0 -1.0 -0.0
vn 0.0 -1.0 -0.0
vn 0.0 -1.0 -0.0
vn 0.0 1.0 -0.0
vn 0.0 1.0 -0.0
vn 0.0 1.0 -0.0
vn 0.0 1.0 -0.0
vn 0.0 1.0 -0.0
vn 0.0 1.0 -0.0
vn 0.0 0.0 1.0
vn 0.0 0.0 1.0
vn 0.0 0.0 1.0
vn 0.0 0.0 1.0
vn 0.0 0.0 1.0
vn 0.0 0.0 1.0
vn 1.0 0.0 -0.0
vn 1.0 0.0 -0.0
vn 1.0 0.0 -0.0
vn 1.0 0.0 -0.0
vn 1.0 0.0 -0.0
vn 1.0 0.0 -0.0
vn 0.0 0.0 -1.0
vn 0.0 0.0 -1.0
vn 0.0 0.0 -1.0
vn 0.0 0.0 -1.0
vn 0.0 0.0 -1.0
vn 0.0 0.0 -1.0
vn -1.0 0.0 -0.0
vn -1.0 0.0 -0.0
vn -1.0 0.0 -0.0
vn -1.0 0.0 -0.0
vn -1.0 0.0 -0.0
vn -1.0 0.0 -0.0
vt 1.0 0.0
vt 1.0 1.0
vt 0.0 1.0
vt 0.0 0.0
f 1/1/1 2/2/2 3/3/3
f 3/3/4 4/4/5 1/1/6
f 5/4/7 6/1/8 7/2/9
f 7/2/10 8/3/11 5/4/12
f 1/4/13 4/1/14 6/2/15
f 6/2/16 5/3/17 1/4/18
f 4/4/19 3/1/20 7/2/21
f 7/2/22 6/3/23 4/4/24
f 3/4/25 2/1/26 8/2/27
f 8/2/28 7/3/29 3/4/30
f 2/4/31 1/1/32 5/2/33
f 5/2/34 8/3/35 2/4/36
